PathFileType	4	(X/Y/Z)	/Users/itak/Documents/Research/Walk-IL/dataset/trc/00282_00010.trc
DataRate	CameraRate	NumFrames	NumMarkers	Units	OrigDataRate	OrigDataStartFrame	OrigNumFrames
100.000000	100.000000	4	53	mm	100.000000	0	630
Frame#	Time	RPSI			LPSI			L3			STRN			T10			C7			CLAV			RBAK			LBAK			LSHO			LUPA			LAEL			LAOL			LWTS			LWPS			LFRA			LIFD			LHPS			LHTS			RSHO			RUPA			RAEL			RAOL			RWTS			RWPS			RFRA			RIFD			RHTS			RHPS			RBHD			LFHD			RFHD			LBHD			LHIP			RASI			LASI			LKNE			LTHI			LANK			LTIP			LTOE			LMT1			LMT5			LHEE			RKNE			RANK			RTIP			RTOE			RMT1			RMT5			RHEE			RHIP			RTHI			
		X1	Y1	Z1	X2	Y2	Z2	X3	Y3	Z3	X4	Y4	Z4	X5	Y5	Z5	X6	Y6	Z6	X7	Y7	Z7	X8	Y8	Z8	X9	Y9	Z9	X10	Y10	Z10	X11	Y11	Z11	X12	Y12	Z12	X13	Y13	Z13	X14	Y14	Z14	X15	Y15	Z15	X16	Y16	Z16	X17	Y17	Z17	X18	Y18	Z18	X19	Y19	Z19	X20	Y20	Z20	X21	Y21	Z21	X22	Y22	Z22	X23	Y23	Z23	X24	Y24	Z24	X25	Y25	Z25	X26	Y26	Z26	X27	Y27	Z27	X28	Y28	Z28	X29	Y29	Z29	X30	Y30	Z30	X31	Y31	Z31	X32	Y32	Z32	X33	Y33	Z33	X34	Y34	Z34	X35	Y35	Z35	X36	Y36	Z36	X37	Y37	Z37	X38	Y38	Z38	X39	Y39	Z39	X40	Y40	Z40	X41	Y41	Z41	X42	Y42	Z42	X43	Y43	Z43	X44	Y44	Z44	X45	Y45	Z45	X46	Y46	Z46	X47	Y47	Z47	X48	Y48	Z48	X49	Y49	Z49	X50	Y50	Z50	X51	Y51	Z51	X52	Y52	Z52	X53	Y53	Z53	

1	0	-34.04272842407227	998.2299194335938	1316.009643554688	-27.63714981079102	975.6453247070312	1142.211303710938	-9.117266654968262	1062.698974609375	1228.623413085938	258.6561584472656	1217.883911132812	1214.459350585938	-10.41324901580811	1186.527709960938	1228.129272460938	62.5651741027832	1424.344360351562	1204.7080078125	205.7308197021484	1322.849243164062	1210.116821289062	-3.035799264907837	1296.141235351562	1287.850463867188	38.56660461425781	1388.267578125	1101.58740234375	129.0170135498047	1383.159423828125	1046.7529296875	74.68071746826172	1271.672485351562	978.1705932617188	39.77032852172852	1070.735107421875	970.7743530273438	-19.30974388122559	1070.315307617188	1033.941162109375	100.7037200927734	846.6705932617188	1023.930847167969	60.58522033691406	834.67529296875	965.4852294921875	40.66171646118164	965.8502807617188	966.3024291992188	92.757080078125	660.427978515625	1033.274658203125	58.88817596435547	746.3882446289062	972.859619140625	116.8357162475586	746.8778076171875	1006.453002929688	134.6663665771484	1393.54541015625	1361.990112304688	127.9876708984375	1337.021850585938	1431.734741210938	118.3592834472656	1067.745361328125	1485.79345703125	64.00342559814453	1063.687866210938	1407.830810546875	192.7521362304688	839.665283203125	1408.057861328125	165.2744140625	832.8042602539062	1487.7138671875	141.7445678710938	998.1619262695312	1490.139526367188	177.1074523925781	654.4644775390625	1395.67529296875	214.0374450683594	719.959228515625	1412.7529296875	178.4173278808594	719.688720703125	1473.681030273438	128.7730255126953	1585.173217773438	1267.02880859375	277.4781188964844	1583.176391601562	1116.197143554688	294.6630859375	1589.2265625	1207.052978515625	100.9774398803711	1566.010009765625	1124.72412109375	42.64052963256836	926.4373779296875	1053.85986328125	185.9453887939453	944.8314819335938	1359.256469726562	182.4284820556641	937.025390625	1108.204956054688	281.0450744628906	504.1071166992188	1075.342895507812	211.2467193603516	630.7227783203125	1057.751098632812	28.29559135437012	131.5077972412109	1090.150390625	162.0945129394531	307.5785522460938	1074.243896484375	201.3605499267578	47.93412017822266	1170.521240234375	130.3551635742188	60.32836151123047	1202.41943359375	137.0877685546875	74.21950531005859	1093.009399414062	-22.07911491394043	145.7532653808594	1143.450439453125	57.83596038818359	472.0782775878906	1378.757568359375	-84.02619934082031	46.30633544921875	1331.643920898438	45.44500732421875	346.701904296875	1359.642700195312	113.0182189941406	43.15458297729492	1281.32666015625	56.52082443237305	42.05391311645508	1240.74072265625	20.17067527770996	37.60662460327148	1352.61669921875	-135.7630310058594	44.02705001831055	1280.178955078125	61.74607849121094	947.4885864257812	1424.836303710938	nan	nan	nan	
2	0.01	-31.91775321960449	998.2808227539062	1315.761108398438	-25.41423034667969	975.7020263671875	1141.824462890625	-6.717732429504395	1062.849487304688	1228.386474609375	260.8440856933594	1217.718383789062	1213.933715820312	-8.285601615905762	1186.294311523438	1228.1767578125	64.71776580810547	1424.171142578125	1204.635986328125	207.8415832519531	1322.699340820312	1209.669677734375	-0.6612895727157593	1295.9931640625	1287.958251953125	40.39986801147461	1388.09521484375	1101.6806640625	130.6182403564453	1382.956176757812	1046.506713867188	75.67435455322266	1271.672607421875	978.1036376953125	39.94506454467773	1070.821533203125	970.9757080078125	-18.48121070861816	1070.603393554688	1034.634521484375	100.1623077392578	846.3929443359375	1023.905822753906	59.58726501464844	834.5011596679688	965.770751953125	40.26714706420898	965.850341796875	966.5838623046875	91.36268615722656	660.1986083984375	1033.601440429688	57.49595642089844	746.2339477539062	973.29638671875	115.5533905029297	746.4711303710938	1006.52197265625	137.326416015625	1393.4833984375	1361.87841796875	130.7707061767578	1336.8955078125	1431.534057617188	121.7129898071289	1067.5078125	1485.44091796875	67.00759887695312	1063.432739257812	1407.680053710938	196.4085388183594	839.8262939453125	1407.110473632812	169.1395874023438	832.6632080078125	1486.832275390625	145.2364959716797	997.9977416992188	1489.6494140625	181.2010040283203	654.4950561523438	1394.536865234375	218.0512542724609	720.080810546875	1411.521606445312	182.6381378173828	719.7512817382812	1472.597778320312	131.2973480224609	1585.00732421875	1266.699462890625	279.5485229492188	1582.7470703125	1115.404174804688	297.0696716308594	1588.8046875	1206.17431640625	103.0434646606445	1565.84423828125	1124.546875	45.33218383789062	926.6519775390625	1053.455688476562	188.3184204101562	944.7196655273438	1359.359008789062	184.8896331787109	936.9962768554688	1108.052001953125	285.4713439941406	505.5170288085938	1074.65234375	214.6604766845703	631.7461547851562	1057.12255859375	38.23002624511719	128.8168792724609	1091.088256835938	169.4886627197266	306.8848876953125	1074.256225585938	212.88134765625	48.505859375	1171.430541992188	141.7454681396484	60.02753829956055	1203.477905273438	147.8441619873047	73.30045318603516	1093.873657226562	-12.19440650939941	142.6231842041016	1144.429565429688	58.432861328125	471.8475646972656	1378.544677734375	-83.96574401855469	46.34009170532227	1331.590087890625	45.89530181884766	346.6347351074219	1359.503295898438	113.0934982299805	43.18712997436523	1281.298583984375	56.48661422729492	41.96049118041992	1240.677856445312	20.16326332092285	37.68037414550781	1352.572509765625	-135.8778076171875	44.15065383911133	1280.1953125	63.91743087768555	947.2797241210938	1424.374389648438	110.1446075439453	731.034912109375	1418.55712890625	
3	0.02	-29.11276817321777	998.3133544921875	1315.417602539062	-22.55029106140137	975.7776489257812	1141.354614257812	-3.623039245605469	1063.016845703125	1228.099365234375	263.668701171875	1217.523559570312	1213.249145507812	-5.498394012451172	1185.964477539062	1228.239868164062	67.47176361083984	1423.924072265625	1204.521484375	210.5696258544922	1322.516235351562	1209.077270507812	2.386184692382812	1295.77587890625	1288.070068359375	42.73574447631836	1387.850708007812	1101.762451171875	132.6574096679688	1382.704833984375	1046.1796875	76.99291229248047	1271.674438476562	977.9942626953125	40.26650238037109	1070.93359375	971.2031860351562	-17.39842796325684	1070.972412109375	1035.453002929688	99.4810791015625	846.0352172851562	1023.904846191406	58.45293426513672	834.29736328125	966.1111450195312	39.88656234741211	965.868408203125	966.9061889648438	89.58132171630859	659.9100952148438	1034.027954101562	55.82902526855469	746.0546264648438	973.8170166015625	113.9723968505859	745.9509887695312	1006.655456542969	140.6815338134766	1393.39306640625	1361.663330078125	134.3069152832031	1336.7470703125	1431.249633789062	125.9657516479492	1067.23779296875	1484.970947265625	70.85439300537109	1063.117919921875	1407.47314453125	201.1119842529297	840.0537719726562	1405.876220703125	174.1171417236328	832.525390625	1485.681762695312	149.6837615966797	997.8089599609375	1488.9970703125	186.5132141113281	654.6022338867188	1393.015991210938	223.2116546630859	720.2854614257812	1409.92431640625	188.0653533935547	719.8338623046875	1471.171020507812	134.5062713623047	1584.773559570312	1266.256469726562	282.1675720214844	1582.218994140625	1114.376220703125	300.1046752929688	1588.27880859375	1205.047973632812	105.657585144043	1565.611450195312	1124.288940429688	48.75455093383789	926.8928833007812	1052.9296875	191.3416900634766	944.494873046875	1359.36083984375	188.0023040771484	936.9613647460938	1107.799560546875	290.9349975585938	507.2245788574219	1073.81396484375	218.9492340087891	632.998779296875	1056.326538085938	51.21745681762695	125.1692428588867	1092.151245117188	178.9072570800781	305.8724060058594	1074.218994140625	227.8493499755859	49.1523551940918	1172.34375	156.5885009765625	59.44538879394531	1204.580322265625	161.8896026611328	72.03103637695312	1094.772705078125	0.7294141054153442	138.3239440917969	1145.555419921875	59.18805313110352	471.5791625976562	1378.25390625	-83.88735198974609	46.37813186645508	1331.520751953125	46.44054412841797	346.5520324707031	1359.299682617188	113.1693344116211	43.23778915405273	1281.282836914062	56.41645050048828	41.82016372680664	1240.569702148438	20.15574836730957	37.76154708862305	1352.5146484375	-135.9903259277344	44.27474212646484	1280.207763671875	66.75619506835938	946.9934692382812	1423.8046875	111.9586410522461	730.635986328125	1418.05322265625	
4	0.03	-25.67203330993652	998.3147583007812	1314.981323242188	-19.13331031799316	975.8638916015625	1140.829223632812	0.0730004608631134	1063.178833007812	1227.777221679688	267.0500183105469	1217.311157226562	1212.419311523438	-2.113932609558105	1185.542602539062	1228.313110351562	70.74329376220703	1423.60205078125	1204.355102539062	213.8399047851562	1322.307373046875	1208.347900390625	6.016952991485596	1295.478759765625	1288.171264648438	45.50397491455078	1387.52783203125	1101.814575195312	135.0736541748047	1382.41162109375	1045.773681640625	78.62317657470703	1271.673461914062	977.8338623046875	40.78179931640625	1071.06201171875	971.4327392578125	-16.07474708557129	1071.404418945312	1036.334838867188	98.70066070556641	845.6021728515625	1023.945556640625	57.28985595703125	834.0751953125	966.4847412109375	39.59762954711914	965.9049682617188	967.2412719726562	87.47518920898438	659.5697021484375	1034.543701171875	53.9924201965332	745.8598022460938	974.3863525390625	112.1812591552734	745.3311767578125	1006.870666503906	144.6102294921875	1393.2724609375	1361.321533203125	138.4788818359375	1336.585693359375	1430.876098632812	130.9664459228516	1066.958374023438	1484.394409179688	75.40815734863281	1062.766479492188	1407.209228515625	206.7198638916016	840.3560791015625	1404.379638671875	180.0596313476562	832.4110107421875	1484.287475585938	154.936767578125	997.6129150390625	1488.196166992188	192.9115753173828	654.8094482421875	1391.12548828125	229.3746185302734	720.5902709960938	1407.994995117188	194.5415954589844	719.939453125	1469.42578125	138.2852630615234	1584.471313476562	1265.701538085938	285.2367553710938	1581.61865234375	1113.138793945312	303.6505432128906	1587.674072265625	1203.706787109375	108.7243270874023	1565.3095703125	1123.942749023438	52.77955627441406	927.1328735351562	1052.29736328125	194.9241485595703	944.1359252929688	1359.217651367188	191.6320495605469	936.9142456054688	1107.432006835938	297.1539306640625	509.1164855957031	1072.879150390625	223.9326171875	634.3997192382812	1055.392944335938	66.97773742675781	120.6063385009766	1093.229858398438	190.035400390625	304.5220642089844	1074.10302734375	245.8950805664062	49.82856369018555	1173.103759765625	174.5342559814453	58.53177642822266	1205.569213867188	178.9051818847656	70.43723297119141	1095.573974609375	16.41412734985352	132.8787994384766	1146.719970703125	60.07299041748047	471.2998657226562	1377.884033203125	-83.80484008789062	46.42213439941406	1331.432861328125	47.05280303955078	346.4581298828125	1359.028564453125	113.2325592041016	43.29934692382812	1281.280517578125	56.31693649291992	41.64130401611328	1240.42333984375	20.14947509765625	37.84358596801758	1352.446166992188	-136.0880889892578	44.38422393798828	1280.211303710938	70.20011138916016	946.633056640625	1423.153930664062	114.2224273681641	730.1478881835938	1417.4423828125	
